# xmcd
#
# Track frame offsets:
#	150
#	18793
#	44169
#	72038
#	99360
#	131274
#	147904
#	165977
#	187074
#	214188
#	235285
#	267678
#
# Disc length: 4302 seconds
#
# Revision: 0
# Processed by: cddbd v1.4PL0 Copyright (c) Steve Scherf et al.
# Submitted via: dBpowerAMP V4.0
#
DISCID=ab10cc0c
DTITLE=Johnny Nitro and The Door Slammers - Drinkin' Triples 'Till You're Seeing Double
DYEAR=1900
DGENRE=Blues
TTITLE0=Ratocaster
TTITLE1=Honey Hush
TTITLE2=Tramp
TTITLE3=Cross Cut Saw
TTITLE4=Goin' Down Slow
TTITLE5=Little Girl
TTITLE6=Nitro Express
TTITLE7=Check Yourself
TTITLE8=So Sharp
TTITLE9=It Will Never Work
TTITLE10=Sno Cone
TTITLE11=Dirty Dishes
EXTD=
EXTT0=
EXTT1=
EXTT2=
EXTT3=
EXTT4=
EXTT5=
EXTT6=
EXTT7=
EXTT8=
EXTT9=
EXTT10=
EXTT11=
PLAYORDER=
